<svg id="visual" viewBox="0 0 960 540" width="960" height="540" xmlns="http://www.w3.org/2000/svg" xmlns:xlink="http://www.w3.org/1999/xlink" version="1.1"><rect x="0" y="0" width="960" height="540" fill="#2a9d8f"></rect><path d="M0 360L7.3 359C14.7 358 29.3 356 43.8 357.7C58.3 359.3 72.7 364.7 87.2 364.5C101.7 364.3 116.3 358.7 131 360.3C145.7 362 160.3 371 174.8 381C189.3 391 203.7 402 218.2 398.5C232.7 395 247.3 377 261.8 376.2C276.3 375.3 290.7 391.7 305.2 395C319.7 398.3 334.3 388.7 349 379.3C363.7 370 378.3 361 392.8 366.7C407.3 372.3 421.7 392.7 436.2 399C450.7 405.3 465.3 397.7 480 390C494.7 382.3 509.3 374.7 523.8 370.5C538.3 366.3 552.7 365.7 567.2 365.5C581.7 365.3 596.3 365.7 611 372.5C625.7 379.3 640.3 392.7 654.8 393.2C669.3 393.7 683.7 381.3 698.2 377.5C712.7 373.7 727.3 378.3 741.8 378.3C756.3 378.3 770.7 373.7 785.2 372.2C799.7 370.7 814.3 372.3 829 378.7C843.7 385 858.3 396 872.8 398C887.3 400 901.7 393 916.2 391.7C930.7 390.3 945.3 394.7 952.7 396.8L960 399L960 541L952.7 541C945.3 541 930.7 541 916.2 541C901.7 541 887.3 541 872.8 541C858.3 541 843.7 541 829 541C814.3 541 799.7 541 785.2 541C770.7 541 756.3 541 741.8 541C727.3 541 712.7 541 698.2 541C683.7 541 669.3 541 654.8 541C640.3 541 625.7 541 611 541C596.3 541 581.7 541 567.2 541C552.7 541 538.3 541 523.8 541C509.3 541 494.7 541 480 541C465.3 541 450.7 541 436.2 541C421.7 541 407.3 541 392.8 541C378.3 541 363.7 541 349 541C334.3 541 319.7 541 305.2 541C290.7 541 276.3 541 261.8 541C247.3 541 232.7 541 218.2 541C203.7 541 189.3 541 174.8 541C160.3 541 145.7 541 131 541C116.3 541 101.7 541 87.2 541C72.7 541 58.3 541 43.8 541C29.3 541 14.7 541 7.3 541L0 541Z" fill="#e9c46a"></path><path d="M0 384L7.3 390.7C14.7 397.3 29.3 410.7 43.8 413C58.3 415.3 72.7 406.7 87.2 401.3C101.7 396 116.3 394 131 391.8C145.7 389.7 160.3 387.3 174.8 384.2C189.3 381 203.7 377 218.2 381.5C232.7 386 247.3 399 261.8 409C276.3 419 290.7 426 305.2 425.7C319.7 425.3 334.3 417.7 349 413C363.7 408.3 378.3 406.7 392.8 400.3C407.3 394 421.7 383 436.2 380.2C450.7 377.3 465.3 382.7 480 387.8C494.7 393 509.3 398 523.8 395.3C538.3 392.7 552.7 382.3 567.2 380C581.7 377.7 596.3 383.3 611 384.8C625.7 386.3 640.3 383.7 654.8 384.8C669.3 386 683.7 391 698.2 398.5C712.7 406 727.3 416 741.8 414.8C756.3 413.7 770.7 401.3 785.2 401.5C799.7 401.7 814.3 414.3 829 422C843.7 429.7 858.3 432.3 872.8 424.8C887.3 417.3 901.7 399.7 916.2 390.3C930.7 381 945.3 380 952.7 379.5L960 379L960 541L952.7 541C945.3 541 930.7 541 916.2 541C901.7 541 887.3 541 872.8 541C858.3 541 843.7 541 829 541C814.3 541 799.7 541 785.2 541C770.7 541 756.3 541 741.8 541C727.3 541 712.7 541 698.2 541C683.7 541 669.3 541 654.8 541C640.3 541 625.7 541 611 541C596.3 541 581.7 541 567.2 541C552.7 541 538.3 541 523.8 541C509.3 541 494.7 541 480 541C465.3 541 450.7 541 436.2 541C421.7 541 407.3 541 392.8 541C378.3 541 363.7 541 349 541C334.3 541 319.7 541 305.2 541C290.7 541 276.3 541 261.8 541C247.3 541 232.7 541 218.2 541C203.7 541 189.3 541 174.8 541C160.3 541 145.7 541 131 541C116.3 541 101.7 541 87.2 541C72.7 541 58.3 541 43.8 541C29.3 541 14.7 541 7.3 541L0 541Z" fill="#ebb760"></path><path d="M0 427L7.3 425.8C14.7 424.7 29.3 422.3 43.8 426C58.3 429.7 72.7 439.3 87.2 439C101.7 438.7 116.3 428.3 131 425.7C145.7 423 160.3 428 174.8 429.2C189.3 430.3 203.7 427.7 218.2 430.8C232.7 434 247.3 443 261.8 438.5C276.3 434 290.7 416 305.2 414.7C319.7 413.3 334.3 428.7 349 429.7C363.7 430.7 378.3 417.3 392.8 414.8C407.3 412.3 421.7 420.7 436.2 427.2C450.7 433.7 465.3 438.3 480 441.8C494.7 445.3 509.3 447.7 523.8 444.3C538.3 441 552.7 432 567.2 425.8C581.7 419.7 596.3 416.3 611 418.7C625.7 421 640.3 429 654.8 433.5C669.3 438 683.7 439 698.2 434.8C712.7 430.7 727.3 421.3 741.8 417.8C756.3 414.3 770.7 416.7 785.2 422.7C799.7 428.7 814.3 438.3 829 438.3C843.7 438.3 858.3 428.7 872.8 429.5C887.3 430.3 901.7 441.7 916.2 440.5C930.7 439.3 945.3 425.7 952.7 418.8L960 412L960 541L952.7 541C945.3 541 930.7 541 916.2 541C901.7 541 887.3 541 872.8 541C858.3 541 843.7 541 829 541C814.3 541 799.7 541 785.2 541C770.7 541 756.3 541 741.8 541C727.3 541 712.7 541 698.2 541C683.7 541 669.3 541 654.8 541C640.3 541 625.7 541 611 541C596.3 541 581.7 541 567.2 541C552.7 541 538.3 541 523.8 541C509.3 541 494.7 541 480 541C465.3 541 450.7 541 436.2 541C421.7 541 407.3 541 392.8 541C378.3 541 363.7 541 349 541C334.3 541 319.7 541 305.2 541C290.7 541 276.3 541 261.8 541C247.3 541 232.7 541 218.2 541C203.7 541 189.3 541 174.8 541C160.3 541 145.7 541 131 541C116.3 541 101.7 541 87.2 541C72.7 541 58.3 541 43.8 541C29.3 541 14.7 541 7.3 541L0 541Z" fill="#eca959"></path><path d="M0 462L7.3 456.5C14.7 451 29.3 440 43.8 441.3C58.3 442.7 72.7 456.3 87.2 457.7C101.7 459 116.3 448 131 447C145.7 446 160.3 455 174.8 457.3C189.3 459.7 203.7 455.3 218.2 450.2C232.7 445 247.3 439 261.8 435.3C276.3 431.7 290.7 430.3 305.2 435.7C319.7 441 334.3 453 349 455.2C363.7 457.3 378.3 449.7 392.8 445.7C407.3 441.7 421.7 441.3 436.2 438.7C450.7 436 465.3 431 480 433.3C494.7 435.7 509.3 445.3 523.8 451.7C538.3 458 552.7 461 567.2 464C581.7 467 596.3 470 611 463.5C625.7 457 640.3 441 654.8 438.3C669.3 435.7 683.7 446.3 698.2 450.8C712.7 455.3 727.3 453.7 741.8 450C756.3 446.3 770.7 440.7 785.2 437.8C799.7 435 814.3 435 829 439.5C843.7 444 858.3 453 872.8 455.5C887.3 458 901.7 454 916.2 453.5C930.7 453 945.3 456 952.7 457.5L960 459L960 541L952.7 541C945.3 541 930.7 541 916.2 541C901.7 541 887.3 541 872.8 541C858.3 541 843.7 541 829 541C814.3 541 799.7 541 785.2 541C770.7 541 756.3 541 741.8 541C727.3 541 712.7 541 698.2 541C683.7 541 669.3 541 654.8 541C640.3 541 625.7 541 611 541C596.3 541 581.7 541 567.2 541C552.7 541 538.3 541 523.8 541C509.3 541 494.7 541 480 541C465.3 541 450.7 541 436.2 541C421.7 541 407.3 541 392.8 541C378.3 541 363.7 541 349 541C334.3 541 319.7 541 305.2 541C290.7 541 276.3 541 261.8 541C247.3 541 232.7 541 218.2 541C203.7 541 189.3 541 174.8 541C160.3 541 145.7 541 131 541C116.3 541 101.7 541 87.2 541C72.7 541 58.3 541 43.8 541C29.3 541 14.7 541 7.3 541L0 541Z" fill="#ec9b54"></path><path d="M0 447L7.3 453.3C14.7 459.7 29.3 472.3 43.8 476.2C58.3 480 72.7 475 87.2 471.3C101.7 467.7 116.3 465.3 131 462C145.7 458.7 160.3 454.3 174.8 457.8C189.3 461.3 203.7 472.7 218.2 472.5C232.7 472.3 247.3 460.7 261.8 459.3C276.3 458 290.7 467 305.2 470.5C319.7 474 334.3 472 349 467.8C363.7 463.7 378.3 457.3 392.8 458.7C407.3 460 421.7 469 436.2 468.8C450.7 468.7 465.3 459.3 480 458.2C494.7 457 509.3 464 523.8 468C538.3 472 552.7 473 567.2 472.5C581.7 472 596.3 470 611 471.2C625.7 472.3 640.3 476.7 654.8 474.2C669.3 471.7 683.7 462.3 698.2 458.7C712.7 455 727.3 457 741.8 460.2C756.3 463.3 770.7 467.7 785.2 469.2C799.7 470.7 814.3 469.3 829 466.8C843.7 464.3 858.3 460.7 872.8 459.3C887.3 458 901.7 459 916.2 463.3C930.7 467.7 945.3 475.3 952.7 479.2L960 483L960 541L952.7 541C945.3 541 930.7 541 916.2 541C901.7 541 887.3 541 872.8 541C858.3 541 843.7 541 829 541C814.3 541 799.7 541 785.2 541C770.7 541 756.3 541 741.8 541C727.3 541 712.7 541 698.2 541C683.7 541 669.3 541 654.8 541C640.3 541 625.7 541 611 541C596.3 541 581.7 541 567.2 541C552.7 541 538.3 541 523.8 541C509.3 541 494.7 541 480 541C465.3 541 450.7 541 436.2 541C421.7 541 407.3 541 392.8 541C378.3 541 363.7 541 349 541C334.3 541 319.7 541 305.2 541C290.7 541 276.3 541 261.8 541C247.3 541 232.7 541 218.2 541C203.7 541 189.3 541 174.8 541C160.3 541 145.7 541 131 541C116.3 541 101.7 541 87.2 541C72.7 541 58.3 541 43.8 541C29.3 541 14.7 541 7.3 541L0 541Z" fill="#eb8d51"></path><path d="M0 499L7.3 499C14.7 499 29.3 499 43.8 495.5C58.3 492 72.7 485 87.2 486.7C101.7 488.3 116.3 498.7 131 498.8C145.7 499 160.3 489 174.8 483C189.3 477 203.7 475 218.2 477.3C232.7 479.7 247.3 486.3 261.8 487.3C276.3 488.3 290.7 483.7 305.2 483.5C319.7 483.3 334.3 487.7 349 492.7C363.7 497.7 378.3 503.3 392.8 503.2C407.3 503 421.7 497 436.2 495.8C450.7 494.7 465.3 498.3 480 501C494.7 503.7 509.3 505.3 523.8 505.2C538.3 505 552.7 503 567.2 497.3C581.7 491.7 596.3 482.3 611 482.8C625.7 483.3 640.3 493.7 654.8 496.7C669.3 499.7 683.7 495.3 698.2 492.8C712.7 490.3 727.3 489.7 741.8 490.7C756.3 491.7 770.7 494.3 785.2 496.5C799.7 498.7 814.3 500.3 829 502C843.7 503.7 858.3 505.3 872.8 506.5C887.3 507.7 901.7 508.3 916.2 504C930.7 499.7 945.3 490.3 952.7 485.7L960 481L960 541L952.7 541C945.3 541 930.7 541 916.2 541C901.7 541 887.3 541 872.8 541C858.3 541 843.7 541 829 541C814.3 541 799.7 541 785.2 541C770.7 541 756.3 541 741.8 541C727.3 541 712.7 541 698.2 541C683.7 541 669.3 541 654.8 541C640.3 541 625.7 541 611 541C596.3 541 581.7 541 567.2 541C552.7 541 538.3 541 523.8 541C509.3 541 494.7 541 480 541C465.3 541 450.7 541 436.2 541C421.7 541 407.3 541 392.8 541C378.3 541 363.7 541 349 541C334.3 541 319.7 541 305.2 541C290.7 541 276.3 541 261.8 541C247.3 541 232.7 541 218.2 541C203.7 541 189.3 541 174.8 541C160.3 541 145.7 541 131 541C116.3 541 101.7 541 87.2 541C72.7 541 58.3 541 43.8 541C29.3 541 14.7 541 7.3 541L0 541Z" fill="#ea7e50"></path><path d="M0 528L7.3 523.2C14.7 518.3 29.3 508.7 43.8 505.2C58.3 501.7 72.7 504.3 87.2 504C101.7 503.7 116.3 500.3 131 499C145.7 497.7 160.3 498.3 174.8 500.8C189.3 503.3 203.7 507.7 218.2 507.3C232.7 507 247.3 502 261.8 503.8C276.3 505.7 290.7 514.3 305.2 519C319.7 523.7 334.3 524.3 349 520.8C363.7 517.3 378.3 509.7 392.8 509.2C407.3 508.7 421.7 515.3 436.2 514.7C450.7 514 465.3 506 480 505.7C494.7 505.3 509.3 512.7 523.8 514.8C538.3 517 552.7 514 567.2 514C581.7 514 596.3 517 611 515.3C625.7 513.7 640.3 507.3 654.8 503.8C669.3 500.3 683.7 499.7 698.2 502.8C712.7 506 727.3 513 741.8 514.3C756.3 515.7 770.7 511.3 785.2 508.8C799.7 506.3 814.3 505.7 829 506C843.7 506.3 858.3 507.7 872.8 506.8C887.3 506 901.7 503 916.2 504.8C930.7 506.7 945.3 513.3 952.7 516.7L960 520L960 541L952.7 541C945.3 541 930.7 541 916.2 541C901.7 541 887.3 541 872.8 541C858.3 541 843.7 541 829 541C814.3 541 799.7 541 785.2 541C770.7 541 756.3 541 741.8 541C727.3 541 712.7 541 698.2 541C683.7 541 669.3 541 654.8 541C640.3 541 625.7 541 611 541C596.3 541 581.7 541 567.2 541C552.7 541 538.3 541 523.8 541C509.3 541 494.7 541 480 541C465.3 541 450.7 541 436.2 541C421.7 541 407.3 541 392.8 541C378.3 541 363.7 541 349 541C334.3 541 319.7 541 305.2 541C290.7 541 276.3 541 261.8 541C247.3 541 232.7 541 218.2 541C203.7 541 189.3 541 174.8 541C160.3 541 145.7 541 131 541C116.3 541 101.7 541 87.2 541C72.7 541 58.3 541 43.8 541C29.3 541 14.7 541 7.3 541L0 541Z" fill="#e76f51"></path></svg>